<svg id="Capa_1" data-name="Capa 1" xmlns="http://www.w3.org/2000/svg" viewBox="0 0 48.23 49"><defs><style>.cls-1{fill:#9c9b9b;fill-rule:evenodd;}</style></defs><path id="path-1" class="cls-1" d="M44.16,7.58l.49,4.07h0l-4.06-.49.49,4.07h0l-4-.5.48,4.07-5.4,5.42,4.71,4.72,1,1.06L21.26,46.65a8,8,0,0,1-11.34,0L2.33,39a8.08,8.08,0,0,1,0-11.37l15.56-15.6h0L18.94,11,20,12.07l4.05,4.07L39.31.85,40.15,0h1.21l3.91,0,2.9,0,0,2.91,0,3.92v1.2ZM18.94,15.25,4.45,29.78a5.06,5.06,0,0,0,0,7.14L12,44.53a5,5,0,0,0,7.12,0L33.65,30Zm4.22,20.32-3.93-3.94,5.56-5.58L28.72,30Zm-9.78-9.8,5.56-5.58,3.74,3.74-5.57,5.58ZM9.55,37.1,6.91,34.46a1.56,1.56,0,0,1,0-2.21l4.36-4.37L15,31.63Zm11.5.59-4.36,4.37a1.57,1.57,0,0,1-2.2,0l-2.83-2.84,5.45-5.47Z" transform="translate(0.01 0)"/></svg>