<?xml version="1.0" encoding="UTF-8"?>
<svg id="Capa_1" data-name="Capa 1" xmlns="http://www.w3.org/2000/svg" version="1.1" xmlns:xlink="http://www.w3.org/1999/xlink" viewBox="0 0 500 500">
  <defs>
    <style>
      .cls-1, .cls-2 {
        stroke-width: 0px;
      }

      .cls-1, .cls-3, .cls-4 {
        fill: none;
      }

      .cls-2 {
        fill: #2a292b;
      }

      .cls-3 {
        stroke: #2a292b;
        stroke-linecap: round;
        stroke-linejoin: round;
      }

      .cls-3, .cls-4 {
        stroke-width: 2px;
      }

      .cls-5 {
        clip-path: url(#clippath);
      }

      .cls-4 {
        stroke: #e0e0e0;
      }
    </style>
    <clipPath id="clippath">
      <rect class="cls-1" x="149.5" y="100.2" width="201" height="291.3"/>
    </clipPath>
  </defs>
  <g id="Elipse_1" data-name="Elipse 1">
    <ellipse class="cls-1" cx="250" cy="250" rx="251" ry="250"/>
    <ellipse class="cls-4" cx="250" cy="250" rx="249" ry="247.9"/>
  </g>
  <g id="Grupo_1912" data-name="Grupo 1912">
    <g class="cls-5">
      <g id="Grupo_1911" data-name="Grupo 1911">
        <path id="Trazado_3560" data-name="Trazado 3560" class="cls-3" d="M344.9,198.7c0-2-.1-4-.3-6.1-4.5-52.2-50.5-90.9-102.7-86.4-49.1,4.2-86.8,45.3-86.8,94.5v.4c.3,16.6,5,32.8,13.7,47l81.2,137.8,81.2-137.7c9.1-14.9,13.8-32.1,13.7-49.5Z"/>
        <line id="Línea_32" data-name="Línea 32" class="cls-3" x1="216.4" y1="385.9" x2="283.6" y2="385.9"/>
        <path id="Trazado_3561" data-name="Trazado 3561" class="cls-2" d="M310.7,192.1h-40.1c-.2,0-.4-.2-.4-.4v-8.1c0-1-.8-1.8-1.7-1.8,0,0,0,0,0,0h-36.7c-1,0-1.8.8-1.8,1.8v8.1c0,.2-.2.4-.4.4h-27.7c-1.3,0-2.5.8-3.1,1.9l-10.2,20.3c-.2.4,0,1,.4,1.2.1,0,.3,0,.4,0h40.3c.2,0,.4.2.4.4v7.8c0,1,.8,1.8,1.8,1.8h36.7c1,0,1.8-.8,1.8-1.8h0v-7.9c0-.2.2-.4.4-.4h27.6c1.3,0,2.5-.7,3.1-1.9l10.2-20.3c.2-.4,0-1-.4-1.2-.1,0-.3,0-.4,0"/>
      </g>
    </g>
  </g>
</svg>