<?xml version="1.0" encoding="UTF-8"?>
<svg id="Capa_1" data-name="Capa 1" xmlns="http://www.w3.org/2000/svg" version="1.1" xmlns:xlink="http://www.w3.org/1999/xlink" viewBox="0 0 500 500">
  <defs>
    <style>
      .cls-1 {
        stroke-width: 0px;
      }

      .cls-1, .cls-2, .cls-3 {
        fill: none;
      }

      .cls-2 {
        stroke: #2a292b;
        stroke-linecap: round;
        stroke-linejoin: round;
      }

      .cls-2, .cls-3 {
        stroke-width: 2px;
      }

      .cls-4 {
        clip-path: url(#clippath);
      }

      .cls-3 {
        stroke: #e0e0e0;
      }
    </style>
    <clipPath id="clippath">
      <rect class="cls-1" x="127.1" y="115.7" width="243.8" height="243.8"/>
    </clipPath>
  </defs>
  <g id="Elipse_5" data-name="Elipse 5">
    <ellipse class="cls-1" cx="250" cy="250" rx="251" ry="250"/>
    <ellipse class="cls-3" cx="250" cy="250" rx="249" ry="247.9"/>
  </g>
  <g id="Grupo_1917" data-name="Grupo 1917">
    <g class="cls-4">
      <g id="Grupo_1916" data-name="Grupo 1916">
        <path id="Trazado_3563" data-name="Trazado 3563" class="cls-2" d="M180.1,343.9l51.3-51-24.5-24.5-51.2,50.9c-6.8,6.8-6.7,17.8,0,24.5,6.7,6.7,17.6,6.7,24.4.1h0Z"/>
        <line id="Línea_35" data-name="Línea 35" class="cls-2" x1="292.4" y1="208.2" x2="357.4" y2="143.2"/>
        <path id="Trazado_3564" data-name="Trazado 3564" class="cls-2" d="M358.4,314.7l-125.3-125.3c9.1-26.9-5.4-56.1-32.3-65.2-10.7-3.6-22.3-3.6-32.9,0l36.7,36.7-32.4,32.4-36.7-36.7c-9.1,26.9,5.4,56.1,32.3,65.2,10.7,3.6,22.3,3.6,32.9,0l125.3,125.3c8.9,8.9,23.5,8.9,32.4,0,8.9-8.9,8.9-23.5,0-32.4Z"/>
      </g>
    </g>
  </g>
</svg>