<?xml version="1.0" encoding="UTF-8"?>
<svg id="Capa_1" data-name="Capa 1" xmlns="http://www.w3.org/2000/svg" version="1.1" xmlns:xlink="http://www.w3.org/1999/xlink" viewBox="0 0 500 500">
  <defs>
    <style>
      .cls-1, .cls-2 {
        stroke-width: 0px;
      }

      .cls-1, .cls-3, .cls-4 {
        fill: none;
      }

      .cls-5 {
        clip-path: url(#clippath);
      }

      .cls-2 {
        fill: #2a292b;
        fill-rule: evenodd;
      }

      .cls-3 {
        stroke: #e0e0e0;
        stroke-width: 2px;
      }

      .cls-4 {
        stroke: #2a292b;
        stroke-linecap: round;
        stroke-linejoin: round;
      }
    </style>
    <clipPath id="clippath">
      <rect class="cls-1" x="119.2" y="115.7" width="261.5" height="262.9"/>
    </clipPath>
  </defs>
  <g id="Elipse_6" data-name="Elipse 6">
    <ellipse class="cls-1" cx="250" cy="250" rx="251" ry="250"/>
    <ellipse class="cls-3" cx="250" cy="250" rx="249" ry="247.9"/>
  </g>
  <g id="Grupo_1919" data-name="Grupo 1919">
    <g class="cls-5">
      <g id="Grupo_1918" data-name="Grupo 1918">
        <path id="Trazado_3565" data-name="Trazado 3565" class="cls-4" d="M374.6,217c-13.9-58.2-64.1-97.9-124.7-98.7-8.2.3-16.4,1.1-24.4,2.5-84.9,17.1-128.6,110.8-87.5,186.2,1.2,1.9,1.7,4.2,1.2,6.4-6,19.6-11.5,39.7-16.8,59.5q-.9,3.4,2.4,2.5c20.7-5.7,41.2-11,61.9-16.1,1.5-.6,3.2-.5,4.6.2,25.8,13.4,55.4,17.5,84,11.9,70.1-13.5,116.1-85,99.3-154.4Z"/>
        <path id="Trazado_3566" data-name="Trazado 3566" class="cls-2" d="M283.2,307.2c-4.5.3-9-.2-13.3-1.7-29.2-8.6-51.4-26.5-69.2-50.8-6.6-9-12.9-18.7-14.8-30.2-2.8-12.6,1.6-25.8,11.5-34.1,3.3-3.2,13.1-4.7,17-2.5,1.1.9,2.1,2.1,2.8,3.3,3.6,9.1,7.5,17.5,11.2,26.2.6,1.8.4,3.8-.5,5.5-2.2,3.8-4.8,7.4-7.9,10.6-2.1,1.5-2.6,4.5-1.1,6.6,0,.1.2.3.3.4,9.8,17.2,25.2,30.4,43.7,37.5,2.2,1.2,5.1.6,6.6-1.5,3.3-3.8,6.5-8,9.6-12,1.6-2.3,4.7-3,7.1-1.7,6.3,2.7,12.4,5.7,18.4,8.4,1.7.9,2.8,1.5,4.3,2.1,6.3,3.1,6.3,3.5,5.6,10.3-.8,13.3-11.1,20.1-22.8,23.4-2.8.6-5.7.7-8.5.2"/>
      </g>
    </g>
  </g>
</svg>