<?xml version="1.0" encoding="utf-8"?>
<!-- Generator: Adobe Illustrator 25.3.1, SVG Export Plug-In . SVG Version: 6.00 Build 0)  -->
<svg version="1.1" id="Capa_1" xmlns="http://www.w3.org/2000/svg" xmlns:xlink="http://www.w3.org/1999/xlink" x="0px" y="0px"
	 viewBox="0 0 50 25" style="enable-background:new 0 0 50 25;" xml:space="preserve">
<style type="text/css">
	.st0{fill:#B3B3B2;}
</style>
<path class="st0" d="M25.6,24.8c0,0,3.5-4.6,5.9-9.2c1.4-2.6,2.4-5.2,2.4-7.1c0.1-4.6-3.7-8.4-8.3-8.4c-4.6,0-8.3,3.8-8.3,8.4
	c0,1.9,1.1,4.5,2.4,7.1C22.2,20.2,25.6,24.8,25.6,24.8z M25.6,4.2c2.2,0,4,1.8,4,4s-1.8,4-4,4s-4-1.8-4-4C21.6,6,23.4,4.2,25.6,4.2z
	"/>
<path class="st0" d="M31.5-6.7c0,3.3-2.6,5.9-5.8,5.9s-5.8-2.7-5.8-5.9s2.6-5.9,5.8-5.9S31.5-10,31.5-6.7z"/>
</svg>
