<?xml version="1.0" encoding="utf-8"?>
<!-- Generator: Adobe Illustrator 24.3.0, SVG Export Plug-In . SVG Version: 6.00 Build 0)  -->
<svg version="1.1" id="Layer_1" xmlns="http://www.w3.org/2000/svg" xmlns:xlink="http://www.w3.org/1999/xlink" x="0px" y="0px"
	 viewBox="0 0 85 85" style="enable-background:new 0 0 85 85;" xml:space="preserve">
<style type="text/css">
	.st0{fill-rule:evenodd;clip-rule:evenodd;fill:#B3B3B3;}
</style>
<g id="WA_Logo">
	<g>
		<path class="st0" d="M69,15.9C61.9,8.9,52.6,5,42.7,5C22.2,5,5.5,21.7,5.5,42.2c0,6.6,1.7,12.9,5,18.6L5.2,80l19.7-5.2
			c5.4,3,11.5,4.5,17.8,4.5h0c0,0,0,0,0,0c20.5,0,37.2-16.7,37.2-37.2C79.8,32.3,76,22.9,69,15.9z M42.7,73.1L42.7,73.1
			c-5.6,0-11-1.5-15.7-4.3l-1.1-0.7l-11.7,3.1l3.1-11.4l-0.7-1.2c-3.1-4.9-4.7-10.6-4.7-16.4c0-17,13.9-30.9,30.9-30.9
			c8.3,0,16,3.2,21.8,9.1c5.8,5.8,9,13.6,9,21.9C73.6,59.2,59.7,73.1,42.7,73.1z M59.6,50c-0.9-0.5-5.5-2.7-6.3-3
			c-0.9-0.3-1.5-0.5-2.1,0.5c-0.6,0.9-2.4,3-2.9,3.6c-0.5,0.6-1.1,0.7-2,0.2c-0.9-0.5-3.9-1.4-7.5-4.6c-2.8-2.5-4.6-5.5-5.2-6.4
			c-0.5-0.9-0.1-1.4,0.4-1.9c0.4-0.4,0.9-1.1,1.4-1.6c0.5-0.5,0.6-0.9,0.9-1.5c0.3-0.6,0.2-1.2-0.1-1.6c-0.2-0.5-2.1-5-2.9-6.9
			c-0.8-1.8-1.5-1.6-2.1-1.6c-0.5,0-1.2,0-1.8,0s-1.6,0.2-2.5,1.2c-0.9,0.9-3.3,3.2-3.3,7.7c0,4.6,3.3,9,3.8,9.6
			c0.5,0.6,6.5,10,15.9,14c2.2,1,3.9,1.5,5.3,2c2.2,0.7,4.2,0.6,5.8,0.4c1.8-0.3,5.5-2.2,6.3-4.4c0.8-2.2,0.8-4,0.5-4.4
			C61.2,50.7,60.5,50.4,59.6,50z"/>
	</g>
</g>
</svg>
