<svg xmlns="http://www.w3.org/2000/svg" width="400" height="400" viewBox="0 0 400 400">
  <g id="Group_3341" data-name="Group 3341" transform="translate(1735.295 -5832.653)">
    <ellipse id="Ellipse_11" data-name="Ellipse 11" cx="200" cy="200" rx="200" ry="200" transform="translate(-1735.295 5832.653)" fill="#121214"/>
    <path id="Path_24" data-name="Path 24" d="M824.343,184.032l-3.333,26.753a8.926,8.926,0,0,1-8.836,7.834H768.839V330.487q-6.861.621-13.883.621a154.662,154.662,0,0,1-30.568-3.039V218.619H691.057a5.582,5.582,0,0,1-5.557-5.576V179.564a5.583,5.583,0,0,1,5.557-5.577h33.331V123.773a55.677,55.677,0,0,1,55.564-55.79h38.888A5.583,5.583,0,0,1,824.4,73.56v33.478a5.583,5.583,0,0,1-5.557,5.577H791.057a22.27,22.27,0,0,0-22.218,22.319v39.055h46.668a8.93,8.93,0,0,1,8.837,10.044" transform="translate(-2300.381 5833.106)" fill="#fff"/>
  </g>
</svg>
