<svg xmlns="http://www.w3.org/2000/svg" width="400" height="400" viewBox="0 0 400 400">
  <g id="Group_3343" data-name="Group 3343" transform="translate(949.396 -5832.653)">
    <ellipse id="Ellipse_13" data-name="Ellipse 13" cx="200" cy="200" rx="200" ry="200" transform="translate(-949.396 5832.653)" fill="#121214"/>
    <path id="Path_28" data-name="Path 28" d="M1983.292,114.494H1810.912a30.843,30.843,0,0,0-30.843,30.835V253.146a30.837,30.837,0,0,0,30.843,30.834h172.379a30.836,30.836,0,0,0,30.835-30.834V145.329a30.842,30.842,0,0,0-30.835-30.835m-58.505,92.183-47.929,23.955a8.319,8.319,0,0,1-12.046-7.431V175.283a8.325,8.325,0,0,1,12.046-7.439l47.929,23.963a8.313,8.313,0,0,1,0,14.87" transform="translate(-2646.495 5833.417)" fill="#fff"/>
  </g>
</svg>
