<?xml version="1.0" encoding="utf-8"?>
<!-- Generator: Adobe Illustrator 26.0.1, SVG Export Plug-In . SVG Version: 6.00 Build 0)  -->
<svg version="1.1" id="Layer_1" xmlns="http://www.w3.org/2000/svg" xmlns:xlink="http://www.w3.org/1999/xlink" x="0px" y="0px"
	 viewBox="0 0 100 100" style="enable-background:new 0 0 100 100;" xml:space="preserve">
<style type="text/css">
	.st0{fill:#707070;}
</style>
<g>
	<path class="st0" d="M50,0C22.39,0,0,22.39,0,50s22.39,50,50,50s50-22.39,50-50S77.61,0,50,0z M50,88.04
		c-20.97,0-38.04-17.06-38.04-38.04S29.03,11.96,50,11.96S88.04,29.03,88.04,50S70.97,88.04,50,88.04z"/>
	<path class="st0" d="M50,17.25c-18.09,0-32.75,14.66-32.75,32.75c0,18.09,14.66,32.75,32.75,32.75c18.09,0,32.75-14.66,32.75-32.75
		C82.75,31.91,68.09,17.25,50,17.25z M61.11,42.03l6.69-11.57c0.74-1.29,2.2-1.47,3.24-0.41c0,0,2.52,2.56,4.16,5.41
		c1.65,2.85,2.61,6.33,2.61,6.33c0.4,1.43-0.49,2.59-1.97,2.59l-13.37-0.01C60.97,44.36,60.37,43.31,61.11,42.03z M38.87,57.98
		l-6.69,11.56c-0.74,1.28-2.19,1.47-3.23,0.41c0,0-2.51-2.56-4.16-5.4c-1.65-2.85-2.61-6.33-2.61-6.33
		c-0.4-1.43,0.49-2.59,1.98-2.59l13.36,0.01C39.01,55.64,39.61,56.69,38.87,57.98z M37.53,44.36l-13.36-0.01
		c-1.48,0-2.37-1.17-1.97-2.6c0,0,0.96-3.46,2.6-6.3c1.64-2.85,4.18-5.42,4.18-5.42c1.04-1.05,2.49-0.87,3.23,0.41l6.67,11.58
		C39.61,43.31,39.01,44.36,37.53,44.36z M56.75,78.2c0,0-3.48,0.9-6.76,0.9c-3.29,0-6.78-0.9-6.78-0.9c-1.43-0.37-2-1.73-1.26-3.01
		l6.69-11.57c0.74-1.28,1.95-1.28,2.7,0l6.68,11.58C58.75,76.47,58.19,77.83,56.75,78.2z M43.52,50c0-3.57,2.89-6.47,6.47-6.47
		c3.57,0,6.47,2.89,6.47,6.47c0,3.57-2.89,6.47-6.47,6.47C46.42,56.47,43.52,53.57,43.52,50z M58.03,24.82l-6.69,11.57
		c-0.74,1.28-1.95,1.28-2.7,0l-6.67-11.58c-0.74-1.28-0.17-2.64,1.26-3.01c0,0,3.48-0.9,6.76-0.9c3.29,0,6.79,0.9,6.79,0.9
		C58.21,22.18,58.77,23.53,58.03,24.82z M77.79,58.24c0,0-0.96,3.46-2.61,6.3c-1.64,2.85-4.17,5.42-4.17,5.42
		c-1.04,1.06-2.49,0.87-3.23-0.41L61.1,57.98c-0.74-1.28-0.13-2.34,1.35-2.34l13.36,0.01C77.3,55.65,78.19,56.81,77.79,58.24z"/>
</g>
</svg>
