<svg xmlns="http://www.w3.org/2000/svg" width="400" height="400" viewBox="0 0 400 400">
  <g id="Group_3340" data-name="Group 3340" transform="translate(2128.244 -5832.653)">
    <ellipse id="Ellipse_12" data-name="Ellipse 12" cx="200" cy="200" rx="200" ry="200" transform="translate(-2128.244 5832.653)" fill="#121214"/>
    <path id="Path_25" data-name="Path 25" d="M253.634,94.462H145.109a50.654,50.654,0,0,0-50.644,50.645V253.632a50.653,50.653,0,0,0,50.644,50.644H253.634a50.654,50.654,0,0,0,50.645-50.644V145.107a50.655,50.655,0,0,0-50.645-50.645m32.557,155.552a36.189,36.189,0,0,1-36.175,36.175H148.727a36.189,36.189,0,0,1-36.175-36.175V148.724a36.188,36.188,0,0,1,36.175-36.174H250.016a36.188,36.188,0,0,1,36.175,36.174Z" transform="translate(-2127.616 5833.283)" fill="#fff"/>
    <path id="Path_26" data-name="Path 26" d="M199.138,144.772A54.263,54.263,0,1,0,253.4,199.034a54.282,54.282,0,0,0-54.262-54.262m0,90.437a36.175,36.175,0,1,1,36.175-36.175,36.235,36.235,0,0,1-36.175,36.175" transform="translate(-2127.28 5833.618)" fill="#fff"/>
    <path id="Path_27" data-name="Path 27" d="M256.348,152.1A10.852,10.852,0,1,1,267.2,141.25,10.865,10.865,0,0,1,256.348,152.1" transform="translate(-2126.61 5833.522)" fill="#fff"/>
  </g>
</svg>
