<?xml version="1.0" encoding="utf-8"?>
<!-- Generator: Adobe Illustrator 25.4.1, SVG Export Plug-In . SVG Version: 6.00 Build 0)  -->
<svg version="1.1" id="Layer_1" xmlns="http://www.w3.org/2000/svg" xmlns:xlink="http://www.w3.org/1999/xlink" x="0px" y="0px"
	 viewBox="0 0 115 115" style="enable-background:new 0 0 115 115;" xml:space="preserve">
<style type="text/css">
	.st0{fill:none;stroke:#7E7E7E;stroke-width:5.5;stroke-miterlimit:10;}
	.st1{fill:#7E7E7E;}
</style>
<g>
	<polyline class="st0" points="81.2,96.5 91.4,96.5 91.4,6 23.6,6 23.6,96.5 33.1,96.5 	"/>
	<line class="st0" x1="35.9" y1="21.6" x2="78.3" y2="21.6"/>
	<line class="st0" x1="35.9" y1="34" x2="78.3" y2="34"/>
	<line class="st0" x1="35.9" y1="46.3" x2="78.3" y2="46.3"/>
	<g>
		<path class="st1" d="M56.5,113v-6.2c-8.5-0.6-13.3-6.4-13.4-13.9h7.6c0.1,3.3,2.4,6.2,5.8,6.8V87.6c-7.2-2.7-12.3-5.2-12.3-13.3
			c0-6.7,5.1-10.9,12.3-11.6V57h3.8v5.7c7.2,0.6,12.5,5,12.1,13.5h-7.8c0-3-1.4-5.9-4.4-6.4v10.9c7,2.4,12.5,6,12.5,13.5
			c0,7.1-5.3,11.7-12.5,12.5v6.2H56.5z M56.5,69.8c-3.4,0.6-4.6,2.6-4.6,4.5c0,2.9,2.2,4.3,4.6,5.2V69.8z M60.3,99.6
			c2.6-0.7,4.6-2.5,4.6-5.3c0-2.6-2-4.3-4.6-5.3V99.6z"/>
	</g>
</g>
</svg>
