<?xml version="1.0" encoding="utf-8"?>
<!-- Generator: Adobe Illustrator 25.0.0, SVG Export Plug-In . SVG Version: 6.00 Build 0)  -->
<svg version="1.1" id="Layer_1" xmlns="http://www.w3.org/2000/svg" xmlns:xlink="http://www.w3.org/1999/xlink" x="0px" y="0px"
	 viewBox="0 0 58 44" style="enable-background:new 0 0 58 44;" xml:space="preserve">
<style type="text/css">
	.st0{fill:#808080;}
	.st1{fill:#B7B7B7;}
	.st2{fill:#FFFFFF;}
</style>
<g>
	<path class="st0" d="M45.9,41.7c0.4-0.1,13.6-16,2.5-18.7c-7.3-1.7-16-2.7-1.1-6.4l-2.1,0c-3.2,0-6.3,0.4-9.4,1.4
		c-7.3,2.3-3,4.1,2.9,6.2c7.1,2.4-19.9,17.5-20.3,17.6H45.9z"/>
	<path class="st1" d="M6.4,25.2l0.1,0.1c0.1,0.1,0.2,0.3,0.3,0.4L17.3,41c0.5,0.7,1.6,0.9,2.3,0.4c0.2-0.1,0.3-0.3,0.4-0.4
		l10.6-15.2c0.1-0.1,0.2-0.3,0.3-0.4l0.1-0.1l0,0c4.4-6.8,2.4-15.8-4.3-20.2S10.8,2.6,6.4,9.4C3.3,14.2,3.3,20.4,6.4,25.2L6.4,25.2z
		 M18.7,11.2c3.4,0,6.1,2.7,6.1,6.1s-2.7,6.1-6.1,6.1s-6.1-2.7-6.1-6.1l0,0C12.6,14,15.3,11.2,18.7,11.2z"/>
	<path class="st1" d="M42.6,10.3L42.6,10.3c0.1,0.1,0.1,0.1,0.1,0.2l4,5.8c0.2,0.3,0.6,0.4,0.9,0.2c0.1,0,0.1-0.1,0.2-0.2l4-5.8
		c0-0.1,0.1-0.1,0.1-0.2l0,0l0,0c1.7-2.6,0.9-6-1.6-7.7c-2.6-1.7-6-0.9-7.7,1.6C41.4,6.2,41.4,8.5,42.6,10.3L42.6,10.3z M47.3,5
		c1.3,0,2.3,1,2.3,2.3s-1,2.3-2.3,2.3c-1.3,0-2.3-1-2.3-2.3l0,0C45,6.1,46,5,47.3,5z"/>
	<g>
		<path class="st2" d="M47,16.5l-1.2,0.2c0,0,0,0,0,0c0,0,0,0,0,0l0,0L47,16.5C47.1,16.5,47.1,16.5,47,16.5
			C47.1,16.5,47.1,16.5,47,16.5z"/>
		<path class="st2" d="M44.7,16.9l-2.4,0.4c0,0,0,0,0,0c0,0,0,0,0,0l0,0L44.7,16.9C44.7,16.9,44.7,16.9,44.7,16.9
			C44.7,16.9,44.7,16.9,44.7,16.9z"/>
		<path class="st2" d="M41.2,17.6c-0.5,0.1-1.1,0.3-1.6,0.4c0,0,0,0-0.1,0c0,0,0,0,0-0.1l0,0C40.1,17.8,40.6,17.7,41.2,17.6
			C41.2,17.5,41.2,17.5,41.2,17.6C41.2,17.6,41.2,17.6,41.2,17.6z"/>
		<path class="st2" d="M38.4,18.4c-0.4,0.1-0.8,0.3-1.1,0.4c0,0-0.1,0-0.1,0c0,0,0-0.1,0-0.1l0,0C37.6,18.5,38,18.4,38.4,18.4
			C38.4,18.3,38.4,18.3,38.4,18.4C38.4,18.3,38.4,18.4,38.4,18.4z"/>
		<path class="st2" d="M36.2,19.3c-0.2,0.1-0.3,0.2-0.4,0.4c-0.1,0.2-0.1,0.3-0.1,0.5c0.1,0.2,0.2,0.3,0.3,0.4
			c0.1,0.1,0.3,0.2,0.5,0.3c0,0,0,0.1,0,0.1c0,0-0.1,0-0.1,0l0,0c-0.2-0.1-0.3-0.2-0.5-0.4c-0.2-0.1-0.3-0.3-0.4-0.5
			c-0.1-0.2,0-0.4,0.1-0.6C35.8,19.5,36,19.4,36.2,19.3C36.2,19.2,36.2,19.2,36.2,19.3C36.3,19.3,36.3,19.3,36.2,19.3z"/>
		<path class="st2" d="M37.7,21.6c0.5,0.2,1,0.4,1.6,0.6c0,0,0.1,0.1,0,0.1c0,0-0.1,0.1-0.1,0l0,0c-0.5-0.2-1.1-0.4-1.6-0.6
			C37.6,21.7,37.6,21.6,37.7,21.6C37.6,21.6,37.6,21.6,37.7,21.6z"/>
		<path class="st2" d="M40.4,22.5l1.1,0.4c0,0,0.1,0.1,0.1,0.1c0,0-0.1,0.1-0.1,0.1l0,0l-1.1-0.4C40.3,22.7,40.3,22.6,40.4,22.5
			C40.3,22.5,40.3,22.5,40.4,22.5z"/>
		<path class="st2" d="M42.6,23.3c0.8,0.3,1.5,0.6,2.2,0.9c0,0,0.1,0.1,0,0.1c0,0-0.1,0.1-0.1,0l0,0c-0.7-0.4-1.4-0.7-2.2-0.9
			c0,0-0.1-0.1-0.1-0.1C42.5,23.3,42.6,23.3,42.6,23.3z"/>
		<path class="st2" d="M45.9,24.9c0.2,0.2,0.4,0.4,0.6,0.7c0.1,0.1,0.1,0.3,0.1,0.4c0,0.2,0,0.3,0,0.4c0,0.1-0.1,0.1-0.1,0.1
			c-0.1,0-0.1-0.1-0.1-0.1l0,0c0-0.1,0-0.3,0-0.4c0-0.1-0.1-0.2-0.1-0.4c-0.1-0.2-0.3-0.4-0.5-0.6c0,0,0-0.1,0-0.1
			C45.8,24.9,45.8,24.9,45.9,24.9z"/>
		<path class="st2" d="M46.2,27.6c-0.2,0.4-0.3,0.7-0.5,1.1c0,0.1-0.1,0.1-0.2,0c-0.1,0-0.1-0.1,0-0.2l0,0c0.2-0.3,0.4-0.7,0.5-1.1
			c0-0.1,0.1-0.1,0.1-0.1C46.2,27.5,46.2,27.6,46.2,27.6z"/>
		<path class="st2" d="M45,29.7c-0.4,0.7-0.9,1.3-1.4,2c0,0.1-0.1,0.1-0.2,0c-0.1,0-0.1-0.1,0-0.2l0,0c0.5-0.6,0.9-1.3,1.4-2
			c0-0.1,0.1-0.1,0.2,0C45,29.6,45,29.7,45,29.7z"/>
		<path class="st2" d="M42.9,32.6l-1.1,1.3c0,0.1-0.1,0.1-0.2,0s-0.1-0.1,0-0.2l0,0l0,0l1.1-1.3l0,0c0-0.1,0.1-0.1,0.2,0
			S42.9,32.6,42.9,32.6z"/>
		<path class="st2" d="M41,34.8l-0.8,0.9c0,0-0.1,0-0.2,0c0,0,0-0.1,0-0.2l0,0l0.8-0.9l0,0c0,0,0.1-0.1,0.2,0
			C41.1,34.7,41.1,34.8,41,34.8L41,34.8z"/>
		<path class="st2" d="M39.4,36.6l-1.7,1.7c0,0-0.1,0-0.1,0c0,0,0-0.1,0-0.1l0,0l1.7-1.7l0,0c0,0,0.1,0,0.2,0
			C39.4,36.5,39.4,36.5,39.4,36.6C39.4,36.6,39.4,36.6,39.4,36.6z"/>
		<path class="st2" d="M36.8,39.1l-1.2,1.1c0,0-0.1,0-0.1,0c0,0,0-0.1,0-0.1l0,0l1.2-1.1l0,0c0,0,0.1,0,0.1,0
			C36.9,39,36.8,39.1,36.8,39.1C36.8,39.1,36.8,39.1,36.8,39.1z"/>
		<path class="st2" d="M33.8,41.7l0.8-0.7c0,0,0,0,0,0c0,0,0-0.1,0-0.1c0,0-0.1,0-0.1,0l-0.9,0.8c0,0,0,0,0,0H33.8z"/>
	</g>
</g>
</svg>
