<svg id="Layer_1" data-name="Layer 1" xmlns="http://www.w3.org/2000/svg" viewBox="0 0 60 60"><defs><style>.cls-1{fill:#4c4c4c;}</style></defs><title>warranty-selected</title><rect class="cls-1" x="20.57" y="11.06" width="18.86" height="2.89"/><rect class="cls-1" x="20.57" y="17.03" width="18.86" height="2.89"/><path class="cls-1" d="M30,30.65a9.06,9.06,0,0,0-4,17.18l-.8,9.68L30,53.86l4.83,3.64L34,47.82a9.06,9.06,0,0,0-4-17.18Z"/><rect class="cls-1" x="20.57" y="23" width="18.86" height="2.89"/><polygon class="cls-1" points="13.06 2.5 13.06 42.13 13.06 45.04 17.97 45.04 18.73 45.04 18.73 42.15 17.97 42.15 17.97 42.13 15.95 42.13 15.95 5.39 44.05 5.39 44.05 42.13 42.03 42.13 42.03 42.15 41.27 42.15 41.27 45.04 42.03 45.04 46.94 45.04 46.94 42.13 46.94 2.5 13.06 2.5"/></svg>